<?xml version="1.0" encoding="UTF-8" standalone="no"?>
<!-- Generator: Adobe Illustrator 21.1.0, SVG Export Plug-In . SVG Version: 6.00 Build 0)  -->

<svg
   xmlns:dc="http://purl.org/dc/elements/1.1/"
   xmlns:cc="http://creativecommons.org/ns#"
   xmlns:rdf="http://www.w3.org/1999/02/22-rdf-syntax-ns#"
   xmlns:svg="http://www.w3.org/2000/svg"
   xmlns="http://www.w3.org/2000/svg"
   xmlns:sodipodi="http://sodipodi.sourceforge.net/DTD/sodipodi-0.dtd"
   xmlns:inkscape="http://www.inkscape.org/namespaces/inkscape"
   version="1.1"
   id="Layer_1"
   x="0px"
   y="0px"
   viewBox="0 0 121.40051 85"
   xml:space="preserve"
   sodipodi:docname="lambda_tube.svg"
   width="121.40051"
   height="85"
   inkscape:version="0.92.4 5da689c313, 2019-01-14"><metadata
   id="metadata965"><rdf:RDF><cc:Work
       rdf:about=""><dc:format>image/svg+xml</dc:format><dc:type
         rdf:resource="http://purl.org/dc/dcmitype/StillImage" /><dc:title></dc:title></cc:Work></rdf:RDF></metadata><defs
   id="defs963" /><sodipodi:namedview
   pagecolor="#ffffff"
   bordercolor="#666666"
   borderopacity="1"
   objecttolerance="10"
   gridtolerance="10"
   guidetolerance="10"
   inkscape:pageopacity="0"
   inkscape:pageshadow="2"
   inkscape:window-width="1886"
   inkscape:window-height="1022"
   id="namedview961"
   showgrid="false"
   inkscape:zoom="3.4050933"
   inkscape:cx="156.28264"
   inkscape:cy="16.727619"
   inkscape:window-x="14"
   inkscape:window-y="38"
   inkscape:window-maximized="0"
   inkscape:current-layer="Layer_1" />
<style
   type="text/css"
   id="style934">
	.st0{fill:#FF0000;}
	.st1{fill:#FFFFFF;}
	.st2{fill:#282828;}
</style>
<g
   id="g940">
	<path
   class="st0"
   d="M 118.9,13.3 C 117.5,8.1 113.4,4 108.2,2.6 98.7,0 60.7,0 60.7,0 60.7,0 22.7,0 13.2,2.5 8.1,3.9 3.9,8.1 2.5,13.3 0,22.8 0,42.5 0,42.5 0,42.5 0,62.3 2.5,71.7 3.9,76.9 8,81 13.2,82.4 22.8,85 60.7,85 60.7,85 c 0,0 38,0 47.5,-2.5 5.2,-1.4 9.3,-5.5 10.7,-10.7 2.5,-9.5 2.5,-29.2 2.5,-29.2 0,0 0.1,-19.8 -2.5,-29.3 z"
   id="path936"
   inkscape:connector-curvature="0"
   style="fill:#ff0000" />
	
</g>

<path
   inkscape:connector-curvature="0"
   style="opacity:1;fill:#ffffff;fill-opacity:1;fill-rule:nonzero;stroke:none;stroke-width:0.31877029;stroke-linecap:round;stroke-linejoin:miter;stroke-miterlimit:4.0999999;stroke-dasharray:none;stroke-opacity:1;paint-order:markers fill stroke"
   d="m 55.356836,17.869296 c -0.429344,-0.0011 -0.826493,0.234364 -1.039295,0.611794 L 27.699389,65.289788 c -0.215373,0.38117 -0.215124,0.83672 0.0014,1.21742 0.215794,0.38305 0.602754,0.61133 1.035184,0.6118 l 13.827352,0.0117 c 0.427333,-3.5e-4 0.824581,-0.2349 1.037243,-0.60905 L 60.540325,36.841056 c 0.02199,-0.08512 0.12714,-0.09408 0.158944,-0.09454 h 0.0014 7.02e-4 c 0.03087,3.51e-4 0.111924,0.0075 0.159629,0.09454 l 16.939035,29.680542 c 0.212336,0.37416 0.61092,0.60859 1.037927,0.60905 l 13.826668,-0.0117 c 0.432616,-3.5e-4 0.819576,-0.22875 1.035184,-0.61179 0.216541,-0.3807 0.21651,-0.83625 0.0014,-1.21742 L 67.082299,18.48109 c -0.212332,-0.37743 -0.60858,-0.61273 -1.037923,-0.611794 l -5.343083,0.0055 h -7.01e-4 -0.0014 z"
   id="rect846" /></svg>